<svg version="1.1" xmlns="http://www.w3.org/2000/svg" xmlns:xlink="http://www.w3.org/1999/xlink" width="960" height="540" viewBox="0,0,960,540"><defs><clipPath id="clip-1"><path d="M-160,450v-540h960v540z" fill="none" stroke-width="1"/></clipPath></defs><g transform="translate(160,90)"><g clip-path="url(#clip-1)" data-paper-data="{&quot;isPaintingLayer&quot;:true}" fill-rule="nonzero" stroke="none" stroke-linecap="butt" stroke-linejoin="miter" stroke-miterlimit="10" stroke-dasharray="" stroke-dashoffset="0" style="mix-blend-mode: normal"><path d="M188.43946,188.43083c0,-6.37836 0,-18.03957 0,-18.03957h199.59362v26.22058c0,0 -163.14041,0 -191.99503,0c-3.83035,0 -7.59859,-4.66508 -7.59859,-8.18101z" fill="#0f0f0f" stroke-width="0"/><path d="M420.98995,196.61184c-28.85462,0 -169.02303,0 -169.02303,0v-26.22058h176.62162c0,0 0,11.66121 0,18.03957c0,3.51593 -3.76824,8.18101 -7.59859,8.18101z" data-paper-data="{&quot;index&quot;:null}" fill="#0f0f0f" stroke-width="0"/><path d="M428.58854,171.56917c0,6.37836 0,18.03957 0,18.03957h-176.62162v-26.22058c0,0 140.16841,0 169.02303,0c3.83035,0 7.59859,4.66508 7.59859,8.18101z" data-paper-data="{&quot;index&quot;:null}" fill="#0f0f0f" stroke-width="0"/><path d="M196.03805,163.38816c28.85462,0 191.99503,0 191.99503,0v26.22058h-199.59362c0,0 0,-11.66121 0,-18.03957c0,-3.51593 3.76824,-8.18101 7.59859,-8.18101z" data-paper-data="{&quot;index&quot;:null}" fill="#0f0f0f" stroke-width="0"/><text transform="translate(254.25177,184.30344) scale(0.33739,0.33739)" font-size="40" xml:space="preserve" fill="#ffffff" fill-rule="nonzero" stroke="none" stroke-width="1" stroke-linecap="butt" stroke-linejoin="miter" stroke-miterlimit="10" stroke-dasharray="" stroke-dashoffset="0" font-family="Sans Serif" font-weight="normal" text-anchor="start" style="mix-blend-mode: normal"><tspan x="0" dy="0">Join our discord!</tspan></text><path d="M391.07107,186.55314c-2.20546,1.64904 -4.34479,2.64949 -6.44809,3.30418c-0.52081,-0.71401 -0.98153,-1.47511 -1.38015,-2.27301c0.75918,-0.28851 1.4883,-0.6445 2.17739,-1.0598c-0.18028,-0.13504 -0.35854,-0.27622 -0.53282,-0.42148c-4.14049,1.96003 -8.69363,1.96003 -12.88418,0c-0.17225,0.14527 -0.35055,0.28645 -0.53282,0.42148c0.68706,0.41328 1.41419,0.76927 2.17337,1.05774c-0.39862,0.79996 -0.86133,1.559 -1.38015,2.27304c-2.10128,-0.65469 -4.23863,-1.65518 -6.44409,-3.30216c-0.4507,-4.83044 0.4507,-9.73046 3.77591,-14.75529c1.64859,-0.77336 3.41335,-1.33599 5.25824,-1.65518c0.22835,0.4092 0.49878,0.95957 0.68105,1.3974c1.92302,-0.29462 3.86406,-0.29462 5.82311,0c0.18231,-0.43782 0.44672,-0.9882 0.67305,-1.3974c1.8429,0.31919 3.60565,0.87977 5.25423,1.6511c2.88252,4.30464 4.31476,9.15966 3.78593,14.75937zM376.50428,180.97797c0.02203,-1.43217 -1.00957,-2.60651 -2.28959,-2.60651c-1.27999,0 -2.28959,1.1764 -2.28959,2.60651c0,1.43011 1.03163,2.60449 2.28959,2.60449c1.28002,0 2.29158,-1.17438 2.28959,-2.60449zM384.96553,180.97797c0.02203,-1.43217 -1.0096,-2.60651 -2.28959,-2.60651c-1.28002,0 -2.28959,1.1764 -2.28959,2.60651c0,1.43011 1.03163,2.60449 2.28959,2.60449c1.27999,0 2.28959,-1.17438 2.28959,-2.60449z" fill="#ffffff" stroke-width="1"/></g></g></svg>