<svg version="1.1" xmlns="http://www.w3.org/2000/svg" xmlns:xlink="http://www.w3.org/1999/xlink" width="378.83571" height="128.30961" viewBox="0,0,378.83571,128.30961"><defs><linearGradient x1="371.83798" y1="123.90639" x2="371.83798" y2="199.53485" gradientUnits="userSpaceOnUse" id="color-1"><stop offset="0" stop-color="#7dffc8"/><stop offset="1" stop-color="#4dcdc8"/></linearGradient><linearGradient x1="476.23336" y1="145.64018" x2="476.23336" y2="189.79606" gradientUnits="userSpaceOnUse" id="color-2"><stop offset="0" stop-color="#7dffc8"/><stop offset="1" stop-color="#4dcdc8"/></linearGradient></defs><g transform="translate(-130.55923,-118.03909)"><g data-paper-data="{&quot;isPaintingLayer&quot;:true}" stroke="none" stroke-linecap="butt" stroke-linejoin="miter" stroke-miterlimit="10" stroke-dasharray="" stroke-dashoffset="0" style="mix-blend-mode: normal"><path d="M308.13964,199.53485v-75.62846c0,0 12.08588,0 23.90796,0c0.65031,0 2.21874,19.18559 2.21874,19.18559l41.32446,-0.12905c0,0 6.30013,-18.27357 7.68805,-18.56063c9.40011,-1.9442 17.68488,-2.58782 21.0884,2.00922c1.96484,2.65384 -0.82623,9.95987 2.09469,12.28316c7.16672,5.70038 22.70495,6.66662 22.70495,6.66662c0,0 6.77097,16.32029 5.63934,29.59803c-0.71487,8.38773 -5.40408,20.92112 -5.40408,20.92112c0,0 -74.92123,1.08453 -96.54605,1.73622c-10.94154,0.32974 -24.71646,1.91818 -24.71646,1.91818z" fill="url(#color-1)" fill-rule="nonzero" stroke-width="0"/><path d="M493.65347,147.32384c-0.27,0.846 -1.21846,10.01783 -2.12847,20.33483c-0.91,10.317 -1.84179,19.55113 -2.04279,20.46813l-0.36803,1.66925l-15.09336,-8.68987c-8.283,-4.782 -15.29547,-8.92876 -15.53447,-9.16776c-0.239,-0.238 7.17359,-5.84891 16.42159,-12.39291c9.248,-6.544 17.30782,-12.39106 17.86282,-13.00607c1.265,-1.402 1.5117,-1.18261 0.8827,0.78439" data-paper-data="{&quot;noHover&quot;:false,&quot;origItem&quot;:[&quot;Path&quot;,{&quot;applyMatrix&quot;:true,&quot;segments&quot;:[[[987.242,333.67248],[0,0],[1.258,-3.934]],[[985.48,332.10648],[2.53,-2.804],[-1.11,1.23]],[[949.832,358.13848],[18.496,-13.088],[-18.496,13.088]],[[917.07,382.80248],[-0.478,-0.476],[0.478,0.478]],[[948.058,401.06248],[-16.566,-9.564],[0,0]],[978.178,418.45448],[[978.91,415.11848],[0,0],[0.402,-1.834]],[[982.95,374.26648],[-1.82,20.634],[1.82,-20.634]],[[987.242,333.67248],[-0.54,1.692],[0,0]]],&quot;fillColor&quot;:[1,1,1],&quot;fillRule&quot;:&quot;evenodd&quot;}]}" fill="url(#color-2)" fill-rule="evenodd" stroke-width="0.5"/><path d="M302.877,160.26186l-0.04314,34.39552l-4.76286,0.00047l-4.76186,-0.00047l-0.04314,-34.39552l0.04314,-34.39653l4.76186,-0.00047l4.76286,0.00047l0.04314,34.39653" data-paper-data="{&quot;noHover&quot;:false,&quot;origItem&quot;:[&quot;Path&quot;,{&quot;applyMatrix&quot;:true,&quot;selected&quot;:true,&quot;segments&quot;:[[302.827,179.73624],[302.827,145.38924],[298.071,145.38924],[293.316,145.38924],[293.316,179.73624],[293.316,214.08224],[298.071,214.08224],[302.827,214.08224],[302.827,179.73624]],&quot;fillColor&quot;:[0,0,0,1]}]}" fill="#000000" fill-rule="nonzero" stroke-width="0.5"/><path d="M230.83861,158.69844c1.844,7.121 3.95479,15.87447 4.68979,19.50747c0.734,3.633 1.39203,6.8167 1.47203,7.0917c0.08,0.275 0.50087,-1.67471 1.02987,-4.40971c0.529,-2.735 2.95406,-11.75507 5.38606,-19.96807c2.431,-8.213 4.44586,-15.0728 4.44586,-15.2248c0,-0.153 2.37053,-0.27917 5.25353,-0.27917l5.25345,0.00105l0.54683,1.71842c1.962,6.186 6.89835,23.66153 8.54235,30.27353l1.95098,7.8873l0.78811,-4.76661c0.68,-3.696 7.25379,-29.74177 8.60079,-34.10477c0.244,-0.791 1.04874,-0.9902 5.12274,-0.9902l4.76407,0.00277l-0.32533,1.45399c-0.179,0.8 -3.22281,11.82684 -6.77281,24.46884l-6.47252,23.01985l-5.52955,0.00432l-5.53157,0.00418l-3.62526,-12.50543c-1.968,-6.83 -4.29468,-15.29916 -5.18568,-18.93116c-0.89,-3.633 -1.7437,-6.9601 -1.9117,-7.3961c-0.168,-0.436 -0.93128,1.82229 -1.70728,5.01929c-0.775,3.197 -3.27594,12.08259 -5.58294,19.85659l-4.24352,14.22146l-5.33609,-0.00403l-5.33526,-0.00412l-6.47154,-23.41711c-3.551,-12.86 -6.58872,-23.95571 -6.76172,-24.62071c-0.312,-1.204 -0.28843,-1.21253 4.59957,-1.06053l4.9855,0.21845l3.36122,12.93329" data-paper-data="{&quot;noHover&quot;:false,&quot;origItem&quot;:[&quot;Path&quot;,{&quot;applyMatrix&quot;:true,&quot;selected&quot;:true,&quot;segments&quot;:[[230.794,178.15024],[227.441,165.20524],[[222.531,165.05224],[0,0],[-4.888,-0.152]],[[217.934,166.10924],[-0.312,-1.204],[0.173,0.665]],[[224.704,190.70024],[-3.551,-12.86],[0,0]],[231.159,214.08224],[236.489,214.08224],[241.818,214.08224],[[246.012,199.94724],[0,0],[2.307,-7.774]],[[251.615,180.00024],[-0.775,3.197],[0.776,-3.197]],[[253.331,174.98024],[-0.168,-0.436],[0.168,0.436]],[[255.256,182.37824],[-0.89,-3.633],[0.891,3.632]],[[260.454,201.40024],[-1.968,-6.83],[0,0]],[264.033,213.81724],[269.557,213.81724],[275.081,213.81724],[[281.537,190.83224],[0,0],[3.55,-12.642]],[[288.318,166.39324],[-0.179,0.8],[0,0]],[288.644,164.94024],[[283.882,164.94024],[0,0],[-4.074,0]],[[278.835,165.86524],[0.244,-0.791],[-1.347,4.363]],[[270.24,200.03024],[0.68,-3.696],[0,0]],[269.373,204.73624],[[267.414,196.86024],[0,0],[-1.644,-6.612]],[[258.904,166.65824],[1.962,6.186],[0,0]],[258.359,164.94024],[[253.116,164.94024],[0,0],[-2.883,0]],[[247.873,165.21824],[0,-0.153],[0,0.152]],[[243.453,180.42824],[2.431,-8.213],[-2.432,8.213]],[[238.071,200.33324],[0.529,-2.735],[-0.529,2.735]],[[236.964,204.80624],[0.08,0.275],[-0.08,-0.275]],[[235.483,197.70124],[0.734,3.633],[-0.735,-3.633]],[[230.794,178.15024],[1.844,7.121],[0,0]]],&quot;fillColor&quot;:[0,0,0,1]}]}" fill="#000000" fill-rule="nonzero" stroke-width="0.5"/><path d="M204.87865,146.00237c8.26,2.551 12.9908,10.12709 13.1258,21.04709l0.06334,5.10598l-16.32493,0.15434l-16.41595,0.12954l0.3857,2.79603c1.221,11.833 13.00248,15.6681 29.15848,9.4681c0.582,-0.223 0.80574,0.59828 0.80574,3.78428l-0.00361,4.00236l-3.57197,1.10869c-21.437,6.646 -36.25323,-2.73408 -36.36423,-23.03308c-0.105,-19.196 12.40064,-29.73434 29.14164,-24.56334" data-paper-data="{&quot;noHover&quot;:false,&quot;origItem&quot;:[&quot;Path&quot;,{&quot;applyMatrix&quot;:true,&quot;selected&quot;:true,&quot;segments&quot;:[[[204.863,165.52424],[0,0],[-16.741,-5.171]],[[175.787,190.03924],[-0.105,-19.196],[0.111,20.299]],[[212.074,213.03124],[-21.437,6.646],[0,0]],[215.641,211.92624],[[215.641,207.92724],[0,0],[0,-3.186]],[[214.91,204.20924],[0.582,-0.223],[-16.156,6.2]],[[185.667,194.73024],[1.221,11.833],[0,0]],[185.376,191.90424],[201.697,191.76424],[218.018,191.62524],[[217.955,186.53124],[0,0],[-0.135,-10.92]],[[204.863,165.52424],[8.26,2.551],[0,0]]],&quot;fillColor&quot;:[0,0,0,1]}]}" fill="#000000" fill-rule="nonzero" stroke-width="0.5"/><path d="M147.39559,147.35288c-0.082,11.77 -0.02313,21.32659 0.12187,21.31759c0.145,-0.009 0.94539,-0.97573 1.87939,-2.21673c1.783,-2.368 8.74163,-10.01004 15.42063,-16.93704l3.95282,-4.09275l5.22714,0.00661c2.87,0 5.22411,0.14201 5.22411,0.30701c0,0.166 -4.27394,4.84914 -9.50494,10.39414c-5.231,5.546 -9.54958,10.39148 -9.54958,10.68648c0,0.295 4.48512,6.46471 10.00712,13.82471c5.522,7.36 10.09022,13.58943 10.09022,13.73843c0,0.148 -2.45157,0.27198 -5.44157,0.27198l-5.44147,0.00243l-8.05361,-10.85713c-8.923,-12.047 -7.77206,-11.26829 -11.92106,-7.90729l-1.90162,1.50211l-0.00746,8.58183l-0.0366,8.67993l-4.76149,-0.00223l-4.75968,-0.00255l-0.0238,-34.38858l0.0238,-34.38958l4.7767,-0.00256l4.81049,0.09251l-0.1314,21.39066" data-paper-data="{&quot;noHover&quot;:false,&quot;origItem&quot;:[&quot;Path&quot;,{&quot;applyMatrix&quot;:true,&quot;selected&quot;:true,&quot;segments&quot;:[[147.362,166.79024],[147.511,145.38924],[142.738,145.38924],[137.966,145.38924],[137.966,179.73624],[137.966,214.08224],[142.721,214.08224],[147.477,214.08224],[147.477,205.49524],[147.477,196.90924],[[149.433,195.32324],[0,0],[4.149,-3.361]],[[161.323,203.22324],[-8.923,-12.047],[0,0]],[169.367,214.08224],[[174.802,214.08224],[0,0],[2.99,0]],[[180.238,213.81324],[0,0.148],[0,-0.149]],[[170.198,200.16124],[5.522,7.36],[-5.522,-7.36]],[[160.159,186.24324],[0,0.295],[0,-0.295]],[[169.67,175.62424],[-5.231,5.546],[5.231,-5.545]],[[179.181,165.24124],[0,0.166],[0,-0.165]],[[173.962,164.94024],[2.87,0],[0,0]],[168.743,164.94024],[[164.794,169.03524],[0,0],[-6.679,6.927]],[[149.439,185.90124],[1.783,-2.368],[-0.934,1.241]],[[147.477,188.17424],[0.145,-0.009],[-0.145,0.009]],[[147.362,166.79024],[-0.082,11.77],[0,0]]],&quot;fillColor&quot;:[0,0,0,1]}]}" fill="#000000" fill-rule="nonzero" stroke-width="0.5"/><path d="M135.715,118.71686c3.006,-1.114 13.706,-0.779 15.642,0.49c3.319,2.175 3.513,3.095 3.516,16.616c0.001,7.24 0.204,12.285 0.494,12.285c0.271,0 2.208,-1.89 4.304,-4.2c4.895,-5.395 5.989,-5.839 14.389,-5.839c5.324,0 6.834,0.179 8.451,1.003c1.943,0.991 2.003,0.99 4.735,-0.075c5.636,-2.195 16.449,-1.859 22.414,0.698l2.287,0.98l1.921,-1.303c1.787,-1.213 2.376,-1.303 8.512,-1.303c9.865,0 11.454,1.233 13.619,10.568c1.376,5.931 1.505,5.917 3.34,-0.351c2.749,-9.388 3.854,-10.215 13.652,-10.216c10.168,-0.002 11.377,0.849 13.968,9.836c1.942,6.737 1.925,6.739 3.863,-0.576c2.011,-7.593 3.956,-9.261 10.801,-9.261h3.665l0.183,-7.36c0.311,-12.523 0.318,-12.527 20.526,-12.336c1.308,0.012 7.134,-0.01 12.946,-0.049c15.548,-0.104 16.114,0.381 16.116,13.8c0,4.432 0.179,8.057 0.397,8.055c0.218,-0.002 2.061,-0.567 4.095,-1.255c11.622,-3.932 26.925,-3.707 34.545,0.508c1.271,0.703 2.401,1.279 2.51,1.279c0.108,0 0.198,-3.864 0.199,-8.587c0.003,-13.574 0.898,-14.322 16.811,-14.043c14.234,0.249 15.42,1.197 15.42,12.32v6.112l3.302,-0.334c19.248,-1.949 32.119,19.644 26.641,44.69c-3.666,16.763 -19.061,26.197 -33.684,20.641c-2.46,-0.935 -2.896,-0.964 -4.217,-0.281c-2.656,1.374 -35.059,1.094 -37.707,-0.326l-2.024,-1.084l-2.606,1.121c-6.32,2.718 -15.593,2.62 -21.95,-0.233l-3.16,-1.418l-2.043,1.386l-2.043,1.387l-11.378,-0.236c-13.57,-0.282 -10.915,-0.28 -19.831,-0.015c-10.769,0.321 -12.394,-0.983 -12.926,-10.374l-0.285,-5.02l-1.499,5.354c-2.683,9.573 -3.593,10.234 -14.088,10.234c-9.935,0 -11.241,-0.743 -13.224,-7.529c-0.574,-1.962 -1.55,-5.291 -2.17,-7.398l-1.128,-3.831l-2.1,7.132c-3.265,11.089 -3.932,11.626 -14.403,11.626c-8.845,0 -11.693,-1.31 -12.688,-5.837c-0.346,-1.578 -1.315,-2.184 -1.315,-0.822c0,5.751 -23.213,9.717 -34.47,5.889c-2.258,-0.768 -2.654,-0.772 -4.069,-0.04c-1.195,0.618 -3.362,0.81 -9.123,0.808c-9.348,-0.002 -9.448,-0.053 -15.018,-7.629c-4.903,-6.669 -4.955,-6.685 -4.957,-1.484c-0.004,7.563 -2.089,9.116 -12.232,9.113c-12.916,-0.004 -12.069,2.922 -12.071,-41.662c-0.002,-41.824 -0.275,-39.615 5.145,-41.624M147.362,147.31586l0.149,-21.401h-4.773h-4.772v34.347v34.346h4.755h4.756v-8.587v-8.586l1.956,-1.586c4.149,-3.361 2.967,-4.147 11.89,7.9l8.044,10.859h5.435c2.99,0 5.436,-0.121 5.436,-0.269c0,-0.149 -4.518,-6.292 -10.04,-13.652c-5.522,-7.36 -10.039,-13.623 -10.039,-13.918c0,-0.295 4.28,-5.073 9.511,-10.619c5.231,-5.545 9.511,-10.217 9.511,-10.383c0,-0.165 -2.349,-0.301 -5.219,-0.301h-5.219l-3.949,4.095c-6.679,6.927 -13.572,14.498 -15.355,16.866c-0.934,1.241 -1.817,2.264 -1.962,2.273c-0.145,0.009 -0.197,-9.614 -0.115,-21.384M302.827,160.26186v-34.347h-4.756h-4.755v34.347v34.346h4.755h4.756v-34.346M327.662,160.26186v-34.347h-8.719h-8.718v34.347v34.346h8.718h8.719v-34.346M401.605,134.50186l0.033,-8.587h-8.719h-8.718v34.347v34.346h6.629h6.63l0.9,-1.643c0.495,-0.904 1.289,-2.145 1.765,-2.758l0.865,-1.115l2.233,2.018c7.172,6.48 18.358,5.351 24.087,-2.431c7.628,-10.363 6.528,-33.164 -1.972,-40.842c-6.444,-5.823 -15.716,-5.581 -21.671,0.564c-2.934,3.027 -2.931,3.029 -2.478,-1.482c0.211,-2.107 0.398,-7.694 0.416,-12.417M488.008,131.43986c0.713,-0.714 1.73,-1.297 2.259,-1.297c1.097,0 16.171,8.55 17.976,10.196c3.166,2.887 -0.794,7.705 -4.64,5.647c-2.151,-1.151 -2.652,1.434 -4.806,24.829c-2.173,23.597 -2.069,23.108 -5.422,25.609c-3.309,2.47 -4.733,1.935 -23.045,-8.662c-20.126,-11.647 -20.082,-11.611 -20.077,-16.246c0.003,-3.573 1.271,-4.734 18.021,-16.521c22.848,-16.079 22.496,-15.756 19.843,-18.215c-1.77,-1.64 -1.811,-3.638 -0.109,-5.34M365.856,144.44286c-8.312,-1.614 -21.052,-0.254 -27.147,2.898c-1.879,0.972 -1.945,0.316 0.617,6.16c2.722,6.208 2.261,5.9 6.58,4.401c10.025,-3.479 15.228,-2.55 15.952,2.847l0.289,2.155l-5.221,0.018c-19.692,0.07 -28.308,8.406 -24.01,23.231c2.842,9.802 19.736,12.279 28.327,4.155l2.672,-2.528l1.684,3.414l1.683,3.414h5.817h5.818v-18.739c0,-17.58 -0.067,-18.917 -1.081,-21.626c-1.836,-4.908 -6.519,-8.739 -11.98,-9.8M204.863,146.04986c-16.741,-5.171 -29.181,5.319 -29.076,24.515c0.111,20.299 14.85,29.638 36.287,22.992l3.567,-1.105v-3.999c0,-3.186 -0.149,-3.941 -0.731,-3.718c-16.156,6.2 -28.022,2.354 -29.243,-9.479l-0.291,-2.826l16.321,-0.14l16.321,-0.139l-0.063,-5.094c-0.135,-10.92 -4.832,-18.456 -13.092,-21.007M230.794,158.67586l-3.353,-12.945l-4.91,-0.153c-4.888,-0.152 -4.909,-0.147 -4.597,1.057c0.173,0.665 3.219,11.731 6.77,24.591l6.455,23.382h5.33h5.329l4.194,-14.135c2.307,-7.774 4.828,-16.75 5.603,-19.947c0.776,-3.197 1.548,-5.456 1.716,-5.02c0.168,0.436 1.035,3.765 1.925,7.398c0.891,3.632 3.23,12.192 5.198,19.022l3.579,12.417h5.524h5.524l6.456,-22.985c3.55,-12.642 6.602,-23.639 6.781,-24.439l0.326,-1.453h-4.762c-4.074,0 -4.803,0.134 -5.047,0.925c-1.347,4.363 -7.915,30.469 -8.595,34.165l-0.867,4.706l-1.959,-7.876c-1.644,-6.612 -6.548,-24.016 -8.51,-30.202l-0.545,-1.718h-5.243c-2.883,0 -5.243,0.125 -5.243,0.278c0,0.152 -1.989,6.997 -4.42,15.21c-2.432,8.213 -4.853,17.17 -5.382,19.905c-0.529,2.735 -1.027,4.748 -1.107,4.473c-0.08,-0.275 -0.747,-3.472 -1.481,-7.105c-0.735,-3.633 -2.845,-12.43 -4.689,-19.551M493.621,147.36186c0.629,-1.967 0.384,-2.185 -0.881,-0.783c-0.555,0.615 -8.576,6.472 -17.824,13.016c-9.248,6.544 -16.62,12.094 -16.381,12.332c0.239,0.239 7.211,4.348 15.494,9.13l15.06,8.696l0.366,-1.668c0.201,-0.917 1.11,-10.109 2.02,-20.426c0.91,-10.317 1.876,-19.451 2.146,-20.297M192.651,153.28786c7.051,-3.315 15.567,2.01 15.587,9.748l0.005,1.981h-11.361c-12.695,0 -11.87,0.324 -10.545,-4.139c0.978,-3.291 3.423,-6.232 6.314,-7.59M405.388,157.75886c6.705,-3.445 11.918,7.263 8.933,18.349c-2.007,7.453 -11.279,6.997 -12.42,-0.612c-1.276,-8.507 0.207,-16.051 3.487,-17.737M356.844,172.43286c2.114,-0.222 4.167,-0.435 4.563,-0.475c1.534,-0.153 0.53,7.054 -1.24,8.902c-3.903,4.074 -10.841,2.704 -10.841,-2.141c0,-4.043 1.988,-5.705 7.518,-6.286" fill="#ffffff" fill-rule="evenodd" stroke-width="1"/><text transform="translate(171.11988,235.61513) scale(0.85869,0.85869)" font-size="40" xml:space="preserve" fill="#ffffff" fill-rule="nonzero" stroke="none" stroke-width="1" stroke-linecap="butt" stroke-linejoin="miter" stroke-miterlimit="10" stroke-dasharray="" stroke-dashoffset="0" font-family="Sans Serif" font-weight="normal" text-anchor="start" style="mix-blend-mode: normal"><tspan x="0" dy="0">Build.Share.Play.</tspan></text></g></g></svg>