<svg version="1.1" xmlns="http://www.w3.org/2000/svg" xmlns:xlink="http://www.w3.org/1999/xlink" width="50.65582" height="47.83502" viewBox="0,0,50.65582,47.83502"><g transform="translate(-294.67209,-156.08249)"><g data-paper-data="{&quot;isPaintingLayer&quot;:true}" fill-rule="nonzero" stroke-linejoin="miter" stroke-miterlimit="10" stroke-dasharray="" stroke-dashoffset="0" style="mix-blend-mode: normal"><path d="M294.67209,195.7365c0,-6.37836 0,-32.65091 0,-32.65091h39.53324v40.83192c0,0 -3.08003,0 -31.93465,0c-3.83035,0 -7.59859,-4.66508 -7.59859,-8.18101z" fill="#1a1a1a" stroke="none" stroke-width="0" stroke-linecap="butt"/><path d="M337.72932,203.91751c-28.85462,0 -31.93465,0 -31.93465,0v-40.83192h39.53324c0,0 0,26.27255 0,32.65091c0,3.51593 -3.76824,8.18101 -7.59859,8.18101z" data-paper-data="{&quot;index&quot;:null}" fill="#1a1a1a" stroke="none" stroke-width="0" stroke-linecap="butt"/><path d="M345.32791,164.2635c0,6.37836 0,32.65091 0,32.65091h-39.53324v-40.83192c0,0 3.08003,0 31.93465,0c3.83035,0 7.59859,4.66508 7.59859,8.18101z" data-paper-data="{&quot;index&quot;:null}" fill="#1a1a1a" stroke="none" stroke-width="0" stroke-linecap="butt"/><path d="M302.27068,156.08249c28.85462,0 31.93465,0 31.93465,0v40.83192h-39.53324c0,0 0,-26.27255 0,-32.65091c0,-3.51593 3.76824,-8.18101 7.59859,-8.18101z" data-paper-data="{&quot;index&quot;:null}" fill="#1a1a1a" stroke="none" stroke-width="0" stroke-linecap="butt"/><path d="M334.69404,180h-29.38808" fill="none" stroke="#ffffff" stroke-width="3" stroke-linecap="round"/><path d="M305.30596,172.05508h29.38808" fill="none" stroke="#ffffff" stroke-width="3" stroke-linecap="round"/><path d="M334.69404,188.47458h-29.38808" data-paper-data="{&quot;index&quot;:null}" fill="none" stroke="#ffffff" stroke-width="3" stroke-linecap="round"/></g></g></svg>